<svg xmlns="http://www.w3.org/2000/svg" width="248" height="17" viewBox="0 0 248 17">
    <g fill="#FFF" fill-rule="evenodd">
        <path d="M107.01 7.661h2.964c1.541 0 2.75-.833 2.75-2.13 0-1.272-1.209-2.082-2.75-2.082h-2.965V7.66zm6.118 8.078l-3.058-4.561h-3.061v4.56H103V0h7.044c4.008 0 6.687 2.13 6.687 5.531 0 2.061-1.019 3.726-2.725 4.698l3.793 5.51h-4.671zM124.008 3.403v2.87h7.162v3.332h-7.162v2.73h8.181v3.403H120V0h12.19v3.403zM145.123 7.824c0-2.431-2.016-4.305-4.647-4.305h-2.468v8.7h2.468c2.63 0 4.647-1.896 4.647-4.395m4.055 0c0 4.674-3.627 7.915-8.702 7.915H134V0h6.476c5.075 0 8.702 3.217 8.702 7.824M152 15.738h4.008V0H152zM171.235 3.495h-4.626v12.243h-3.984V3.495H158V0h13.235zM96.223 10.376c-.62 1.45-1.91 2.308-3.71 2.308-2.632 0-4.46-1.897-4.46-4.513 0-2.616 1.828-4.513 4.46-4.513 1.8 0 3.09.86 3.71 2.308h4.244C99.634 2.371 96.605 0 92.537 0 87.674 0 84 3.426 84 8.171c0 4.745 3.674 8.17 8.537 8.17 4.07 0 7.097-2.37 7.93-5.966h-4.244zM190 10.872c0-.974-.83-1.53-2.326-1.53h-3.66v3.175h3.587c1.663 0 2.399-.718 2.399-1.645zM184.014 3.2v3.29h3.019c1.518 0 2.35-.74 2.35-1.76 0-.998-.808-1.53-2.35-1.53h-3.019zm9.907 8.182c0 2.619-2.163 4.38-5.795 4.38H180V0h7.65c3.515 0 5.558 1.622 5.558 4.196 0 1.46-.833 2.967-2.233 3.453 1.971.417 2.946 2.04 2.946 3.733zM205.88 9.781l-2.116-5.307-2.113 5.307h4.228zm1.305 3.269h-6.84l-1.07 2.713H195L201.864 0h3.848l6.841 15.763h-4.275l-1.093-2.713zM228.845 0v15.763h-3.09l-7.742-8.647v8.647H214V0h3.063l7.792 8.878V0zM238.39 9.876l-2.374 2.687v3.2H232V0h4.016v7.232L242.452 0h4.75l-6.15 6.908 6.673 8.855h-5.01zM14.561 0v15.737h-3.985V9.835H4.008v5.902H0V0h4.008v6.319h6.568V0zM59.408 15.737H55.4v-7.89l-3.581 5.39v.024h-2.229v-.023l-3.604-5.439.023 7.938H42V0h2.988l5.716 8.402L56.42 0h2.988zM67.006 3.402v2.87h7.163v3.333h-7.163v2.73h8.182v3.402H63V0h12.188v3.402zM28.502 0C22.15 0 17 4.68 17 10.456c0 2.036.641 3.937 1.749 5.544h5.547c-1.684-1.216-2.777-3.14-2.777-5.31 0-3.68 3.126-6.663 6.981-6.663 3.857 0 6.983 2.983 6.983 6.663 0 2.17-1.093 4.094-2.778 5.31h5.548C39.36 14.393 40 12.492 40 10.456 40 4.68 34.854 0 28.502 0"/>
        <path d="M25 12c.502 1.746 1.879 3 3.5 3 1.622 0 3-1.254 3.5-3h-7z"/>
    </g>
</svg>
